<svg xmlns="http://www.w3.org/2000/svg" width="377.953" height="377.953" viewBox="0 0 377.953 377.953"><defs><clipPath id="b" clipPathUnits="userSpaceOnUse"><path d="M-269.291 141.733H14.174v-283.465h-283.465Z"/></clipPath><clipPath id="c" clipPathUnits="userSpaceOnUse"><path d="M-157.102 85.834h283.465V-197.63h-283.465Z"/></clipPath><clipPath id="d" clipPathUnits="userSpaceOnUse"><path d="M-77.838 111.397h283.465v-283.465H-77.838Z"/></clipPath><clipPath id="e" clipPathUnits="userSpaceOnUse"><path d="M-176.246 175.514h283.465V-107.95h-283.465Z"/></clipPath><clipPath id="f" clipPathUnits="userSpaceOnUse"><path d="M-134.319 149.605h283.465V-133.86h-283.465Z"/></clipPath><clipPath id="g" clipPathUnits="userSpaceOnUse"><path d="M-97.669 128.592h283.465v-283.465H-97.669Z"/></clipPath><clipPath id="h" clipPathUnits="userSpaceOnUse"><path d="M-78.08 135.356h283.466V-148.11H-78.08Z"/></clipPath><clipPath id="i" clipPathUnits="userSpaceOnUse"><path d="M-191.724 149.65H91.741v-283.465h-283.465Z"/></clipPath><clipPath id="j" clipPathUnits="userSpaceOnUse"><path d="M-239.518 122.265H43.947V-161.2h-283.465Z"/></clipPath><clipPath id="k" clipPathUnits="userSpaceOnUse"><path d="M-209.675 209.11H73.79V-74.353h-283.465Z"/></clipPath><clipPath id="l" clipPathUnits="userSpaceOnUse"><path d="M-55.453 122.238h283.465v-283.465H-55.453Z"/></clipPath><clipPath id="m" clipPathUnits="userSpaceOnUse"><path d="M-189.017 201.765H94.448V-81.7h-283.465Z"/></clipPath><clipPath id="n" clipPathUnits="userSpaceOnUse"><use href="#a"/></clipPath><clipPath id="o" clipPathUnits="userSpaceOnUse"><path d="M-94.426 200.16h283.465V-83.305H-94.426Z"/></clipPath><clipPath id="p" clipPathUnits="userSpaceOnUse"><path d="M-180.02 135.356h283.465V-148.11H-180.02Z"/></clipPath><clipPath id="q" clipPathUnits="userSpaceOnUse"><use href="#a"/></clipPath><color-profile name="Coated FOGRA39 (ISO 12647-2:2004)"/><path id="a" d="M0 283.465h283.465V0H0Z"/></defs><path fill="#1d1d1b" d="M0 0c0-70.449-57.109-127.559-127.559-127.559S-255.118-70.449-255.118 0s57.11 127.559 127.559 127.559C-57.109 127.559 0 70.449 0 0" clip-path="url(#b)" transform="matrix(1.33333 0 0 -1.33333 359.055 188.977)"/><path fill="#fff" d="m0 0-20.077 23.779s10.655.082 15.423 0c.681-.012 1.555-.086 1.997-.609C1.428 18.335 8.719 8.129 8.719 8.129s9.969 11.912 12.624 15.041c.292.345 1.392.604 1.807.609 4.752.049 16.476 0 16.476 0L18.261 0l21.365-25.345s-11.454-.045-16.476 0c-.614.006-1.398.355-1.807.856C17.432-19.705 8.719-8.798 8.719-8.798S.034-21.259-2.657-24.489c-.427-.513-1.316-.849-1.997-.856-4.312-.042-16.256 0-16.256 0z" clip-path="url(#c)" transform="matrix(1.33333 0 0 -1.33333 209.47 114.446)"/><path fill="#fff" d="M0 0v49.341h45.134V38.968H12.705v-9.921h27.356v-10.01H12.705V0Z" clip-path="url(#d)" transform="matrix(1.33333 0 0 -1.33333 103.785 148.53)"/><path fill="#fff" d="M0 0c-6.948-.62-13.891-1.329-20.847-1.837-9.197-.672-18.401-1.295-27.611-1.735-8.256-.395-16.526-.475-24.788-.766-6.888-.242-13.789-.395-20.657-.934-11.089-.871-21.74-3.757-32.123-7.676-1.492-.564-2.99-1.11-4.523-1.577 3.914 3.412 8.323 5.989 13.171 7.772 6.648 2.444 13.544 3.878 20.538 4.944C-87.599-.398-78.313.106-68.976.045c1.033-.007 2.223.383 3.079.969 6.773 4.643 13.72 8.941 21.571 11.565 10.12 3.384 20.51 4.333 31.122 3.64 14.851-.971 29.156-4.669 43.456-8.439 8.087-2.133 16.15-4.367 24.279-6.333C58.835.406 63.254-.158 67.677-1.181L12.478-3.445l-.047.529c2.305.559 4.639 1.023 6.908 1.707C21.261-.631 23.14.125 24.962.966c.536.248 1.092 1.043 1.117 1.609.018.412-.753 1.09-1.293 1.257-5.143 1.593-10.252 3.369-15.491 4.559-5.452 1.238-11.017 2.074-16.572 2.747-7.407.897-14.85 1.022-22.313.47-10.908-.806-20.738-4.532-29.785-10.534-.25-.166-.478-.367-.923-.713H.007z" clip-path="url(#e)" transform="matrix(1.33333 0 0 -1.33333 234.995 234.019)"/><path fill="#fff" d="M0 0h-9.518l-6.39 27.374s4.07-.036 5.941.015c.852.023 1.098-.362 1.272-1.124 1.276-5.591 2.601-11.171 4.277-16.766 1.541 5.928 3.081 11.916 4.629 17.875h7.437c1.585-5.753 5-17.476 5.102-17.484 1.161 4.446 2.437 8.867 3.447 13.347.928 4.115.801 4.143 5.032 4.138.855-.002 1.711-.001 2.785-.001C21.858 18.162 19.742 9.102 17.612 0H8.407C6.984 5.131 4.052 15.394 4.052 15.394" clip-path="url(#f)" transform="matrix(1.33333 0 0 -1.33333 179.092 199.473)"/><path fill="#fff" d="M0 0v-6.471c3.269 0 3.104 0 9.629.02.841.003.977.282 1.028.443.116.365.201 5.193.024 5.601-.059.135-.08.386-1.038.389C3.27 0 3.27 0 0 0m13.31-12.385c2.082-2.855 4.099-5.663 6.336-8.733h-8.271s-3.625 5.027-5.106 7.077c-.319.441-1.015.805-1.565.847-1.511.114-3.036.039-4.717.039v-7.963h-6.762V6.394c1.225 0 13.779.234 18.944 0 3.658-.165 5.205-1.906 5.575-5.573.253-2.502.129-5.059 0-7.584-.141-2.777-1.846-4.52-4.434-5.622" clip-path="url(#g)" transform="matrix(1.33333 0 0 -1.33333 130.225 171.456)"/><path fill="#fff" d="M0 0c0 1.739.04 3.251-.014 4.76-.038 1.087.006 2.096-1.246 2.114-2.667.038-5.382.157-8.456 0-1.002-.051-1.121-.866-1.148-1.275-.124-1.888-.054-3.788-.054-5.599Zm6.566-14.222H.07v7.453h-11.042v-7.453h-6.874c-.03.361.026 21.637.227 22.88.416 2.569 2.159 4.405 5.271 4.605 4.437.285 8.929.315 13.358-.036 3.833-.305 5.369-1.946 5.556-6.278.303-7.018 0-14.058 0-21.171" clip-path="url(#h)" transform="matrix(1.33333 0 0 -1.33333 104.105 180.475)"/><path fill="#fff" d="M0 0v6.121h2.453c4.413 0 8.827.037 13.239-.019 1.421-.019 2.087.442 1.943 1.928-.078.8-.014 1.615-.014 2.613-.937.045-1.824.117-2.711.126-3.396.033-6.801-.095-10.185.108-2.952.178-3.986 1.034-4.272 3.918-.291 2.948-.22 5.974.078 8.927.243 2.414 1.69 3.616 4.11 3.653 6.383.098 12.77.033 19.26.033v-6.175H6.888c0-1.205-.096-2.364.065-3.485.042-.289.892-.649 1.374-.656 3.855-.049 7.71 0 11.565-.024 2.761-.017 3.986-1.021 4.111-3.746.146-3.178.112-6.373-.025-9.552-.091-2.098-1.671-3.713-3.711-3.739C13.535-.053 6.802 0 0 0" clip-path="url(#i)" transform="matrix(1.33333 0 0 -1.33333 255.631 199.533)"/><path fill="#fff" d="M0 0h6.564v-27.306H0v10.302h-11.399v-10.302h-6.761V0h6.761v-10.269H0Z" clip-path="url(#j)" transform="matrix(1.33333 0 0 -1.33333 319.357 163.02)"/><path fill="#fff" d="M0 0h-137.643c-.01.177 18.971 2.391 28.488 3.108C-72.663 5.858-36.268 4.635 0 0" clip-path="url(#k)" transform="matrix(1.33333 0 0 -1.33333 279.566 278.814)"/><path fill="#fff" d="M0 0v-6.348c-1.589 0-10.019-.032-12.704 0-1.181.014-1.885-.495-1.902-1.664-.057-3.794-.095-7.589-.043-11.383.015-1.111.755-1.864 1.945-1.858 3.346.017 11.745.053 12.704 0v-5.902c-.88-.054-11.793-.285-16.334 0-3.265.205-5.084 2.182-5.129 5.448-.079 5.718-.245 11.445 0 17.16.123 2.874 2.057 4.469 4.958 4.547C-11.044.146-5.628 0 0 0" clip-path="url(#l)" transform="matrix(1.33333 0 0 -1.33333 73.937 162.984)"/><path fill="#fff" d="M0 0c-1.08 11.44 7.586 17.248 15.342 17.336 9.275.104 16.212-6.747 15.518-15.646-1.084 4.497-3.272 7.668-6.979 9.704-3.482 1.911-7.245 2.24-11.045 1.686C7.814 12.348 2.134 10.033 0 0" clip-path="url(#m)" transform="matrix(1.33333 0 0 -1.33333 252.022 269.02)"/><path fill="#fff" d="M131.362 172.433h-10.288v10.312h10.288z" clip-path="url(#n)" transform="matrix(1.33333 0 0 -1.33333 0 377.953)"/><path fill="#fff" d="M0 0c-3.089 7.403-8.288 11.44-16.533 10.602-7.243-.738-10.973-5.478-13.095-12.047-.881 3.856 1.407 9.832 5.016 12.36 5.466 3.828 11.462 4.163 17.385 1.341C-2.244 9.883-.286 5.339 0 0" clip-path="url(#o)" transform="matrix(1.33333 0 0 -1.33333 125.902 266.88)"/><path fill="#fff" d="M0 0c0 1.739.04 3.251-.014 4.76-.038 1.087.006 2.096-1.246 2.114-2.667.038-5.382.157-8.456 0-1.002-.051-1.121-.866-1.147-1.275-.124-1.888-.055-3.788-.055-5.599Zm6.566-14.222H.07v7.453h-11.042v-7.453h-6.874c-.03.361.027 21.637.228 22.88.415 2.569 2.158 4.405 5.27 4.605 4.438.285 8.929.315 13.359-.036 3.833-.305 5.368-1.946 5.555-6.278.303-7.018 0-14.058 0-21.171" clip-path="url(#p)" transform="matrix(1.33333 0 0 -1.33333 240.027 180.475)"/><path fill="#fff" d="M210.41 172.536h-10.287v10.312h10.287z" clip-path="url(#q)" transform="matrix(1.33333 0 0 -1.33333 0 377.953)"/></svg>